<?xml version="1.0" encoding="UTF-8"?>
<svg xmlns="http://www.w3.org/2000/svg" xmlns:xlink="http://www.w3.org/1999/xlink" width="396pt" height="252pt" viewBox="0 0 396 252">
<defs>
<g>
<g id="glyph-0-0">
<path d="M 0.28125 -1.890625 L 0.28125 -2.667969 L 2.65625 -2.667969 L 2.65625 -1.890625 Z M 0.28125 -1.890625 "/>
</g>
<g id="glyph-0-1">
<path d="M 0.417969 -5.472656 L 0.417969 -6.21875 L 4.496094 -6.21875 L 4.496094 -5.617188 C 4.089844 -5.1875 3.691406 -4.621094 3.300781 -3.914062 C 2.902344 -3.203125 2.601562 -2.472656 2.390625 -1.730469 C 2.234375 -1.199219 2.132812 -0.625 2.09375 0 L 1.296875 0 C 1.304688 -0.492188 1.402344 -1.089844 1.589844 -1.792969 C 1.773438 -2.496094 2.042969 -3.171875 2.390625 -3.824219 C 2.738281 -4.476562 3.109375 -5.027344 3.503906 -5.472656 Z M 0.417969 -5.472656 "/>
</g>
<g id="glyph-0-2">
<path d="M 0.367188 -1.648438 L 1.175781 -1.71875 C 1.234375 -1.320312 1.375 -1.023438 1.59375 -0.824219 C 1.8125 -0.625 2.078125 -0.527344 2.390625 -0.527344 C 2.761719 -0.527344 3.074219 -0.667969 3.335938 -0.949219 C 3.589844 -1.230469 3.71875 -1.601562 3.722656 -2.066406 C 3.71875 -2.503906 3.59375 -2.851562 3.347656 -3.109375 C 3.097656 -3.363281 2.773438 -3.492188 2.375 -3.492188 C 2.125 -3.492188 1.902344 -3.433594 1.703125 -3.320312 C 1.5 -3.207031 1.34375 -3.0625 1.230469 -2.882812 L 0.503906 -2.976562 L 1.113281 -6.214844 L 4.246094 -6.214844 L 4.246094 -5.472656 L 1.730469 -5.472656 L 1.390625 -3.78125 C 1.765625 -4.039062 2.164062 -4.171875 2.582031 -4.175781 C 3.128906 -4.171875 3.59375 -3.980469 3.972656 -3.605469 C 4.351562 -3.222656 4.539062 -2.734375 4.542969 -2.136719 C 4.539062 -1.5625 4.375 -1.070312 4.042969 -0.65625 C 3.636719 -0.148438 3.085938 0.105469 2.390625 0.109375 C 1.816406 0.105469 1.347656 -0.0507812 0.984375 -0.371094 C 0.621094 -0.691406 0.414062 -1.117188 0.367188 -1.648438 Z M 0.367188 -1.648438 "/>
</g>
<g id="glyph-0-3">
<path d="M 0.367188 -3.105469 C 0.363281 -3.847656 0.4375 -4.445312 0.59375 -4.902344 C 0.742188 -5.355469 0.972656 -5.707031 1.277344 -5.953125 C 1.578125 -6.199219 1.957031 -6.320312 2.417969 -6.324219 C 2.753906 -6.320312 3.050781 -6.253906 3.308594 -6.121094 C 3.5625 -5.984375 3.773438 -5.789062 3.9375 -5.53125 C 4.101562 -5.273438 4.230469 -4.960938 4.328125 -4.59375 C 4.421875 -4.226562 4.46875 -3.730469 4.472656 -3.105469 C 4.46875 -2.367188 4.394531 -1.769531 4.242188 -1.316406 C 4.089844 -0.859375 3.863281 -0.507812 3.5625 -0.261719 C 3.257812 -0.015625 2.875 0.105469 2.417969 0.109375 C 1.808594 0.105469 1.332031 -0.109375 0.988281 -0.546875 C 0.570312 -1.066406 0.363281 -1.921875 0.367188 -3.105469 Z M 1.160156 -3.105469 C 1.160156 -2.070312 1.28125 -1.378906 1.523438 -1.039062 C 1.765625 -0.695312 2.0625 -0.527344 2.417969 -0.527344 C 2.773438 -0.527344 3.074219 -0.699219 3.316406 -1.042969 C 3.558594 -1.386719 3.679688 -2.074219 3.679688 -3.105469 C 3.679688 -4.144531 3.558594 -4.832031 3.316406 -5.171875 C 3.074219 -5.511719 2.769531 -5.683594 2.410156 -5.683594 C 2.050781 -5.683594 1.769531 -5.53125 1.558594 -5.234375 C 1.292969 -4.84375 1.160156 -4.136719 1.160156 -3.105469 Z M 1.160156 -3.105469 "/>
</g>
<g id="glyph-0-4">
<path d="M 4.429688 -0.742188 L 4.429688 0 L 0.265625 0 C 0.257812 -0.1875 0.289062 -0.367188 0.355469 -0.539062 C 0.460938 -0.820312 0.628906 -1.097656 0.863281 -1.375 C 1.09375 -1.648438 1.433594 -1.964844 1.878906 -2.328125 C 2.5625 -2.886719 3.023438 -3.332031 3.265625 -3.664062 C 3.5 -3.988281 3.621094 -4.300781 3.625 -4.59375 C 3.621094 -4.898438 3.511719 -5.15625 3.296875 -5.367188 C 3.074219 -5.578125 2.789062 -5.683594 2.441406 -5.683594 C 2.066406 -5.683594 1.769531 -5.570312 1.546875 -5.347656 C 1.320312 -5.125 1.207031 -4.816406 1.207031 -4.421875 L 0.414062 -4.503906 C 0.464844 -5.09375 0.667969 -5.542969 1.027344 -5.855469 C 1.378906 -6.164062 1.855469 -6.320312 2.457031 -6.324219 C 3.058594 -6.320312 3.539062 -6.152344 3.890625 -5.820312 C 4.242188 -5.484375 4.417969 -5.070312 4.421875 -4.578125 C 4.417969 -4.320312 4.367188 -4.074219 4.265625 -3.832031 C 4.164062 -3.589844 3.992188 -3.332031 3.753906 -3.0625 C 3.511719 -2.792969 3.113281 -2.425781 2.5625 -1.957031 C 2.09375 -1.566406 1.796875 -1.300781 1.664062 -1.160156 C 1.53125 -1.019531 1.421875 -0.878906 1.339844 -0.742188 Z M 4.429688 -0.742188 "/>
</g>
<g id="glyph-0-5">
<path d="M 3.277344 0 L 2.503906 0 L 2.503906 -4.929688 C 2.316406 -4.75 2.074219 -4.574219 1.773438 -4.394531 C 1.46875 -4.214844 1.195312 -4.082031 0.957031 -3.996094 L 0.957031 -4.742188 C 1.386719 -4.941406 1.765625 -5.1875 2.089844 -5.480469 C 2.414062 -5.769531 2.644531 -6.050781 2.78125 -6.324219 L 3.277344 -6.324219 Z M 3.277344 0 "/>
</g>
<g id="glyph-0-6">
<path d="M 0.480469 -1.457031 L 1.226562 -1.527344 C 1.285156 -1.171875 1.40625 -0.917969 1.585938 -0.761719 C 1.761719 -0.605469 1.988281 -0.527344 2.269531 -0.527344 C 2.503906 -0.527344 2.714844 -0.582031 2.894531 -0.691406 C 3.074219 -0.800781 3.21875 -0.945312 3.335938 -1.128906 C 3.445312 -1.308594 3.542969 -1.554688 3.621094 -1.863281 C 3.699219 -2.171875 3.738281 -2.484375 3.738281 -2.808594 C 3.738281 -2.839844 3.734375 -2.894531 3.734375 -2.964844 C 3.578125 -2.714844 3.367188 -2.511719 3.101562 -2.363281 C 2.828125 -2.207031 2.539062 -2.132812 2.230469 -2.136719 C 1.707031 -2.132812 1.265625 -2.320312 0.90625 -2.703125 C 0.542969 -3.078125 0.363281 -3.578125 0.367188 -4.199219 C 0.363281 -4.835938 0.550781 -5.347656 0.929688 -5.738281 C 1.304688 -6.125 1.777344 -6.320312 2.347656 -6.324219 C 2.753906 -6.320312 3.128906 -6.210938 3.46875 -5.992188 C 3.808594 -5.769531 4.066406 -5.457031 4.242188 -5.050781 C 4.417969 -4.640625 4.503906 -4.046875 4.507812 -3.277344 C 4.503906 -2.46875 4.417969 -1.828125 4.246094 -1.355469 C 4.070312 -0.875 3.808594 -0.511719 3.464844 -0.265625 C 3.117188 -0.015625 2.714844 0.105469 2.25 0.109375 C 1.757812 0.105469 1.355469 -0.0273438 1.042969 -0.300781 C 0.730469 -0.574219 0.542969 -0.960938 0.480469 -1.457031 Z M 3.648438 -4.238281 C 3.644531 -4.675781 3.527344 -5.027344 3.292969 -5.292969 C 3.054688 -5.550781 2.769531 -5.683594 2.441406 -5.683594 C 2.09375 -5.683594 1.792969 -5.542969 1.542969 -5.261719 C 1.285156 -4.980469 1.160156 -4.617188 1.160156 -4.171875 C 1.160156 -3.769531 1.28125 -3.441406 1.523438 -3.195312 C 1.765625 -2.941406 2.0625 -2.816406 2.417969 -2.820312 C 2.773438 -2.816406 3.066406 -2.941406 3.300781 -3.195312 C 3.527344 -3.441406 3.644531 -3.789062 3.648438 -4.238281 Z M 3.648438 -4.238281 "/>
</g>
<g id="glyph-0-7">
<path d="M 1.554688 -3.417969 C 1.230469 -3.53125 0.992188 -3.699219 0.839844 -3.917969 C 0.683594 -4.132812 0.609375 -4.394531 0.609375 -4.699219 C 0.609375 -5.15625 0.773438 -5.539062 1.101562 -5.855469 C 1.429688 -6.164062 1.867188 -6.320312 2.417969 -6.324219 C 2.96875 -6.320312 3.410156 -6.160156 3.746094 -5.84375 C 4.078125 -5.523438 4.246094 -5.136719 4.25 -4.679688 C 4.246094 -4.386719 4.171875 -4.132812 4.019531 -3.917969 C 3.863281 -3.699219 3.628906 -3.53125 3.320312 -3.417969 C 3.707031 -3.285156 4 -3.082031 4.203125 -2.804688 C 4.402344 -2.519531 4.503906 -2.183594 4.507812 -1.800781 C 4.503906 -1.257812 4.3125 -0.804688 3.933594 -0.441406 C 3.550781 -0.0742188 3.050781 0.105469 2.433594 0.109375 C 1.808594 0.105469 1.308594 -0.0742188 0.925781 -0.441406 C 0.542969 -0.808594 0.351562 -1.269531 0.355469 -1.820312 C 0.351562 -2.230469 0.457031 -2.574219 0.667969 -2.851562 C 0.875 -3.125 1.167969 -3.3125 1.554688 -3.417969 Z M 1.402344 -4.726562 C 1.398438 -4.425781 1.496094 -4.183594 1.6875 -3.996094 C 1.878906 -3.804688 2.128906 -3.707031 2.4375 -3.710938 C 2.734375 -3.707031 2.976562 -3.800781 3.167969 -3.992188 C 3.355469 -4.175781 3.449219 -4.40625 3.453125 -4.683594 C 3.449219 -4.964844 3.351562 -5.203125 3.160156 -5.398438 C 2.960938 -5.585938 2.71875 -5.683594 2.429688 -5.6875 C 2.128906 -5.683594 1.882812 -5.589844 1.691406 -5.402344 C 1.496094 -5.214844 1.398438 -4.988281 1.402344 -4.726562 Z M 1.152344 -1.816406 C 1.148438 -1.597656 1.199219 -1.382812 1.308594 -1.175781 C 1.410156 -0.96875 1.566406 -0.808594 1.773438 -0.695312 C 1.980469 -0.582031 2.203125 -0.527344 2.441406 -0.527344 C 2.808594 -0.527344 3.113281 -0.644531 3.355469 -0.882812 C 3.59375 -1.121094 3.714844 -1.425781 3.71875 -1.792969 C 3.714844 -2.164062 3.589844 -2.46875 3.34375 -2.714844 C 3.09375 -2.957031 2.785156 -3.082031 2.414062 -3.082031 C 2.050781 -3.082031 1.75 -2.960938 1.511719 -2.71875 C 1.269531 -2.476562 1.148438 -2.175781 1.152344 -1.816406 Z M 1.152344 -1.816406 "/>
</g>
<g id="glyph-1-0">
<path d="M 3.066406 0 L 3.066406 -3.335938 L 0.03125 -7.875 L 1.300781 -7.875 L 2.851562 -5.5 C 3.136719 -5.054688 3.402344 -4.609375 3.652344 -4.167969 C 3.886719 -4.574219 4.175781 -5.039062 4.511719 -5.558594 L 6.039062 -7.875 L 7.25 -7.875 L 4.109375 -3.335938 L 4.109375 0 Z M 3.066406 0 "/>
</g>
<g id="glyph-1-1">
<path d="M 4.628906 -1.835938 L 5.628906 -1.714844 C 5.46875 -1.125 5.175781 -0.671875 4.75 -0.351562 C 4.324219 -0.03125 3.78125 0.128906 3.121094 0.128906 C 2.28125 0.128906 1.617188 -0.125 1.132812 -0.640625 C 0.640625 -1.152344 0.398438 -1.875 0.402344 -2.804688 C 0.398438 -3.761719 0.644531 -4.503906 1.144531 -5.035156 C 1.636719 -5.5625 2.277344 -5.828125 3.066406 -5.832031 C 3.824219 -5.828125 4.449219 -5.570312 4.933594 -5.050781 C 5.417969 -4.53125 5.660156 -3.800781 5.660156 -2.863281 C 5.660156 -2.804688 5.65625 -2.71875 5.65625 -2.605469 L 1.402344 -2.605469 C 1.433594 -1.976562 1.613281 -1.496094 1.933594 -1.164062 C 2.25 -0.828125 2.644531 -0.660156 3.125 -0.664062 C 3.476562 -0.660156 3.78125 -0.753906 4.03125 -0.945312 C 4.28125 -1.128906 4.480469 -1.425781 4.628906 -1.835938 Z M 1.457031 -3.398438 L 4.640625 -3.398438 C 4.597656 -3.878906 4.472656 -4.238281 4.273438 -4.480469 C 3.960938 -4.851562 3.5625 -5.039062 3.078125 -5.039062 C 2.628906 -5.039062 2.257812 -4.890625 1.957031 -4.59375 C 1.652344 -4.296875 1.484375 -3.898438 1.457031 -3.398438 Z M 1.457031 -3.398438 "/>
</g>
<g id="glyph-1-2">
<path d="M 4.445312 -0.703125 C 4.085938 -0.398438 3.742188 -0.183594 3.414062 -0.0585938 C 3.082031 0.0664062 2.726562 0.128906 2.347656 0.128906 C 1.71875 0.128906 1.238281 -0.0234375 0.902344 -0.328125 C 0.566406 -0.632812 0.398438 -1.023438 0.398438 -1.503906 C 0.398438 -1.78125 0.460938 -2.035156 0.585938 -2.269531 C 0.710938 -2.496094 0.875 -2.683594 1.085938 -2.824219 C 1.289062 -2.964844 1.523438 -3.070312 1.78125 -3.140625 C 1.96875 -3.191406 2.253906 -3.238281 2.640625 -3.289062 C 3.417969 -3.375 3.992188 -3.488281 4.367188 -3.621094 C 4.367188 -3.753906 4.371094 -3.835938 4.371094 -3.871094 C 4.371094 -4.265625 4.277344 -4.542969 4.097656 -4.703125 C 3.847656 -4.917969 3.480469 -5.027344 2.996094 -5.03125 C 2.539062 -5.027344 2.203125 -4.949219 1.988281 -4.792969 C 1.769531 -4.632812 1.609375 -4.351562 1.507812 -3.949219 L 0.5625 -4.078125 C 0.648438 -4.480469 0.789062 -4.804688 0.988281 -5.054688 C 1.183594 -5.300781 1.46875 -5.492188 1.84375 -5.628906 C 2.214844 -5.761719 2.644531 -5.828125 3.136719 -5.832031 C 3.621094 -5.828125 4.019531 -5.773438 4.324219 -5.660156 C 4.628906 -5.542969 4.851562 -5.398438 4.996094 -5.226562 C 5.136719 -5.054688 5.238281 -4.835938 5.296875 -4.570312 C 5.328125 -4.40625 5.34375 -4.109375 5.34375 -3.679688 L 5.34375 -2.390625 C 5.34375 -1.492188 5.363281 -0.921875 5.40625 -0.683594 C 5.445312 -0.445312 5.527344 -0.21875 5.648438 0 L 4.640625 0 C 4.539062 -0.199219 4.472656 -0.433594 4.445312 -0.703125 Z M 4.367188 -2.863281 C 4.011719 -2.71875 3.488281 -2.597656 2.789062 -2.496094 C 2.390625 -2.4375 2.105469 -2.371094 1.941406 -2.300781 C 1.773438 -2.226562 1.648438 -2.121094 1.5625 -1.988281 C 1.472656 -1.847656 1.429688 -1.695312 1.429688 -1.53125 C 1.429688 -1.269531 1.527344 -1.054688 1.722656 -0.886719 C 1.917969 -0.710938 2.203125 -0.625 2.578125 -0.628906 C 2.949219 -0.625 3.277344 -0.707031 3.570312 -0.871094 C 3.859375 -1.03125 4.074219 -1.253906 4.210938 -1.542969 C 4.3125 -1.753906 4.363281 -2.078125 4.367188 -2.507812 Z M 4.367188 -2.863281 "/>
</g>
<g id="glyph-1-3">
<path d="M 0.714844 0 L 0.714844 -5.703125 L 1.585938 -5.703125 L 1.585938 -4.839844 C 1.804688 -5.242188 2.007812 -5.507812 2.199219 -5.636719 C 2.382812 -5.765625 2.589844 -5.828125 2.820312 -5.832031 C 3.140625 -5.828125 3.472656 -5.726562 3.8125 -5.523438 L 3.480469 -4.625 C 3.242188 -4.761719 3.003906 -4.832031 2.773438 -4.835938 C 2.554688 -4.832031 2.363281 -4.769531 2.199219 -4.644531 C 2.027344 -4.515625 1.910156 -4.339844 1.84375 -4.113281 C 1.730469 -3.769531 1.675781 -3.390625 1.679688 -2.984375 L 1.679688 0 Z M 0.714844 0 "/>
</g>
<g id="glyph-2-0">
<path d="M -2.761719 -6.46875 L -2.496094 -7.507812 C -1.640625 -7.285156 -0.988281 -6.894531 -0.539062 -6.328125 C -0.09375 -5.757812 0.128906 -5.0625 0.132812 -4.25 C 0.128906 -3.398438 -0.0390625 -2.707031 -0.382812 -2.175781 C -0.726562 -1.640625 -1.226562 -1.238281 -1.882812 -0.960938 C -2.535156 -0.683594 -3.242188 -0.542969 -3.996094 -0.546875 C -4.816406 -0.542969 -5.53125 -0.699219 -6.140625 -1.015625 C -6.75 -1.328125 -7.210938 -1.777344 -7.53125 -2.355469 C -7.84375 -2.933594 -8.003906 -3.570312 -8.007812 -4.265625 C -8.003906 -5.050781 -7.804688 -5.710938 -7.40625 -6.25 C -7.003906 -6.785156 -6.4375 -7.160156 -5.714844 -7.375 L -5.472656 -6.347656 C -6.042969 -6.160156 -6.457031 -5.894531 -6.722656 -5.550781 C -6.980469 -5.199219 -7.113281 -4.765625 -7.117188 -4.242188 C -7.113281 -3.636719 -6.96875 -3.128906 -6.679688 -2.726562 C -6.390625 -2.316406 -6 -2.03125 -5.511719 -1.867188 C -5.023438 -1.699219 -4.519531 -1.617188 -4 -1.621094 C -3.328125 -1.617188 -2.742188 -1.714844 -2.246094 -1.914062 C -1.746094 -2.105469 -1.375 -2.410156 -1.128906 -2.824219 C -0.878906 -3.234375 -0.753906 -3.679688 -0.757812 -4.164062 C -0.753906 -4.746094 -0.921875 -5.238281 -1.261719 -5.644531 C -1.59375 -6.042969 -2.09375 -6.320312 -2.761719 -6.46875 Z M -2.761719 -6.46875 "/>
</g>
<g id="glyph-2-1">
<path d="M 2.1875 0.167969 L 1.488281 0.167969 L 1.488281 -6.242188 L 2.1875 -6.242188 Z M 2.1875 0.167969 "/>
</g>
<g id="glyph-2-2">
<path d="M 0 -0.835938 L -7.875 -0.839844 L -7.875 -1.90625 L -1.691406 -6.042969 L -7.875 -6.042969 L -7.875 -7.042969 L 0 -7.042969 L 0 -5.972656 L -6.1875 -1.835938 L 0 -1.835938 Z M 0 -0.835938 "/>
</g>
</g>
<clipPath id="clip-0">
<path clip-rule="nonzero" d="M 36.058594 5.480469 L 390.519531 5.480469 L 390.519531 220.511719 L 36.058594 220.511719 Z M 36.058594 5.480469 "/>
</clipPath>
<clipPath id="clip-1">
<path clip-rule="nonzero" d="M 36.058594 193 L 390.519531 193 L 390.519531 195 L 36.058594 195 Z M 36.058594 193 "/>
</clipPath>
<clipPath id="clip-2">
<path clip-rule="nonzero" d="M 36.058594 154 L 390.519531 154 L 390.519531 156 L 36.058594 156 Z M 36.058594 154 "/>
</clipPath>
<clipPath id="clip-3">
<path clip-rule="nonzero" d="M 36.058594 115 L 390.519531 115 L 390.519531 117 L 36.058594 117 Z M 36.058594 115 "/>
</clipPath>
<clipPath id="clip-4">
<path clip-rule="nonzero" d="M 36.058594 76 L 390.519531 76 L 390.519531 77 L 36.058594 77 Z M 36.058594 76 "/>
</clipPath>
<clipPath id="clip-5">
<path clip-rule="nonzero" d="M 36.058594 37 L 390.519531 37 L 390.519531 38 L 36.058594 38 Z M 36.058594 37 "/>
</clipPath>
<clipPath id="clip-6">
<path clip-rule="nonzero" d="M 73 5.480469 L 74 5.480469 L 74 220.511719 L 73 220.511719 Z M 73 5.480469 "/>
</clipPath>
<clipPath id="clip-7">
<path clip-rule="nonzero" d="M 197 5.480469 L 199 5.480469 L 199 220.511719 L 197 220.511719 Z M 197 5.480469 "/>
</clipPath>
<clipPath id="clip-8">
<path clip-rule="nonzero" d="M 321 5.480469 L 323 5.480469 L 323 220.511719 L 321 220.511719 Z M 321 5.480469 "/>
</clipPath>
<clipPath id="clip-9">
<path clip-rule="nonzero" d="M 36.058594 212 L 390.519531 212 L 390.519531 215 L 36.058594 215 Z M 36.058594 212 "/>
</clipPath>
<clipPath id="clip-10">
<path clip-rule="nonzero" d="M 36.058594 173 L 390.519531 173 L 390.519531 175 L 36.058594 175 Z M 36.058594 173 "/>
</clipPath>
<clipPath id="clip-11">
<path clip-rule="nonzero" d="M 36.058594 134 L 390.519531 134 L 390.519531 136 L 36.058594 136 Z M 36.058594 134 "/>
</clipPath>
<clipPath id="clip-12">
<path clip-rule="nonzero" d="M 36.058594 95 L 390.519531 95 L 390.519531 97 L 36.058594 97 Z M 36.058594 95 "/>
</clipPath>
<clipPath id="clip-13">
<path clip-rule="nonzero" d="M 36.058594 56 L 390.519531 56 L 390.519531 58 L 36.058594 58 Z M 36.058594 56 "/>
</clipPath>
<clipPath id="clip-14">
<path clip-rule="nonzero" d="M 36.058594 17 L 390.519531 17 L 390.519531 19 L 36.058594 19 Z M 36.058594 17 "/>
</clipPath>
<clipPath id="clip-15">
<path clip-rule="nonzero" d="M 135 5.480469 L 137 5.480469 L 137 220.511719 L 135 220.511719 Z M 135 5.480469 "/>
</clipPath>
<clipPath id="clip-16">
<path clip-rule="nonzero" d="M 259 5.480469 L 261 5.480469 L 261 220.511719 L 259 220.511719 Z M 259 5.480469 "/>
</clipPath>
<clipPath id="clip-17">
<path clip-rule="nonzero" d="M 383 5.480469 L 385 5.480469 L 385 220.511719 L 383 220.511719 Z M 383 5.480469 "/>
</clipPath>
</defs>
<rect x="-39.6" y="-25.2" width="475.2" height="302.4" fill="rgb(100%, 100%, 100%)" fill-opacity="1"/>
<rect x="-39.6" y="-25.2" width="475.2" height="302.4" fill="rgb(100%, 100%, 100%)" fill-opacity="1"/>
<path fill="none" stroke-width="1.066978" stroke-linecap="round" stroke-linejoin="round" stroke="rgb(100%, 100%, 100%)" stroke-opacity="1" stroke-miterlimit="10" d="M 0 252 L 396 252 L 396 0 L 0 0 Z M 0 252 "/>
<g clip-path="url(#clip-0)">
<path fill-rule="nonzero" fill="rgb(92.156863%, 92.156863%, 92.156863%)" fill-opacity="1" d="M 36.058594 220.507812 L 390.519531 220.507812 L 390.519531 5.476562 L 36.058594 5.476562 Z M 36.058594 220.507812 "/>
</g>
<g clip-path="url(#clip-1)">
<path fill="none" stroke-width="0.533489" stroke-linecap="butt" stroke-linejoin="round" stroke="rgb(100%, 100%, 100%)" stroke-opacity="1" stroke-miterlimit="10" d="M 36.058594 193.933594 L 390.519531 193.933594 "/>
</g>
<g clip-path="url(#clip-2)">
<path fill="none" stroke-width="0.533489" stroke-linecap="butt" stroke-linejoin="round" stroke="rgb(100%, 100%, 100%)" stroke-opacity="1" stroke-miterlimit="10" d="M 36.058594 154.859375 L 390.519531 154.859375 "/>
</g>
<g clip-path="url(#clip-3)">
<path fill="none" stroke-width="0.533489" stroke-linecap="butt" stroke-linejoin="round" stroke="rgb(100%, 100%, 100%)" stroke-opacity="1" stroke-miterlimit="10" d="M 36.058594 115.785156 L 390.519531 115.785156 "/>
</g>
<g clip-path="url(#clip-4)">
<path fill="none" stroke-width="0.533489" stroke-linecap="butt" stroke-linejoin="round" stroke="rgb(100%, 100%, 100%)" stroke-opacity="1" stroke-miterlimit="10" d="M 36.058594 76.710938 L 390.519531 76.710938 "/>
</g>
<g clip-path="url(#clip-5)">
<path fill="none" stroke-width="0.533489" stroke-linecap="butt" stroke-linejoin="round" stroke="rgb(100%, 100%, 100%)" stroke-opacity="1" stroke-miterlimit="10" d="M 36.058594 37.636719 L 390.519531 37.636719 "/>
</g>
<g clip-path="url(#clip-6)">
<path fill="none" stroke-width="0.533489" stroke-linecap="butt" stroke-linejoin="round" stroke="rgb(100%, 100%, 100%)" stroke-opacity="1" stroke-miterlimit="10" d="M 73.589844 220.507812 L 73.589844 5.480469 "/>
</g>
<g clip-path="url(#clip-7)">
<path fill="none" stroke-width="0.533489" stroke-linecap="butt" stroke-linejoin="round" stroke="rgb(100%, 100%, 100%)" stroke-opacity="1" stroke-miterlimit="10" d="M 197.765625 220.507812 L 197.765625 5.480469 "/>
</g>
<g clip-path="url(#clip-8)">
<path fill="none" stroke-width="0.533489" stroke-linecap="butt" stroke-linejoin="round" stroke="rgb(100%, 100%, 100%)" stroke-opacity="1" stroke-miterlimit="10" d="M 321.945312 220.507812 L 321.945312 5.480469 "/>
</g>
<g clip-path="url(#clip-9)">
<path fill="none" stroke-width="1.066978" stroke-linecap="butt" stroke-linejoin="round" stroke="rgb(100%, 100%, 100%)" stroke-opacity="1" stroke-miterlimit="10" d="M 36.058594 213.472656 L 390.519531 213.472656 "/>
</g>
<g clip-path="url(#clip-10)">
<path fill="none" stroke-width="1.066978" stroke-linecap="butt" stroke-linejoin="round" stroke="rgb(100%, 100%, 100%)" stroke-opacity="1" stroke-miterlimit="10" d="M 36.058594 174.398438 L 390.519531 174.398438 "/>
</g>
<g clip-path="url(#clip-11)">
<path fill="none" stroke-width="1.066978" stroke-linecap="butt" stroke-linejoin="round" stroke="rgb(100%, 100%, 100%)" stroke-opacity="1" stroke-miterlimit="10" d="M 36.058594 135.324219 L 390.519531 135.324219 "/>
</g>
<g clip-path="url(#clip-12)">
<path fill="none" stroke-width="1.066978" stroke-linecap="butt" stroke-linejoin="round" stroke="rgb(100%, 100%, 100%)" stroke-opacity="1" stroke-miterlimit="10" d="M 36.058594 96.25 L 390.519531 96.25 "/>
</g>
<g clip-path="url(#clip-13)">
<path fill="none" stroke-width="1.066978" stroke-linecap="butt" stroke-linejoin="round" stroke="rgb(100%, 100%, 100%)" stroke-opacity="1" stroke-miterlimit="10" d="M 36.058594 57.175781 L 390.519531 57.175781 "/>
</g>
<g clip-path="url(#clip-14)">
<path fill="none" stroke-width="1.066978" stroke-linecap="butt" stroke-linejoin="round" stroke="rgb(100%, 100%, 100%)" stroke-opacity="1" stroke-miterlimit="10" d="M 36.058594 18.101562 L 390.519531 18.101562 "/>
</g>
<g clip-path="url(#clip-15)">
<path fill="none" stroke-width="1.066978" stroke-linecap="butt" stroke-linejoin="round" stroke="rgb(100%, 100%, 100%)" stroke-opacity="1" stroke-miterlimit="10" d="M 135.679688 220.507812 L 135.679688 5.480469 "/>
</g>
<g clip-path="url(#clip-16)">
<path fill="none" stroke-width="1.066978" stroke-linecap="butt" stroke-linejoin="round" stroke="rgb(100%, 100%, 100%)" stroke-opacity="1" stroke-miterlimit="10" d="M 259.855469 220.507812 L 259.855469 5.480469 "/>
</g>
<g clip-path="url(#clip-17)">
<path fill="none" stroke-width="1.066978" stroke-linecap="butt" stroke-linejoin="round" stroke="rgb(100%, 100%, 100%)" stroke-opacity="1" stroke-miterlimit="10" d="M 384.03125 220.507812 L 384.03125 5.480469 "/>
</g>
<path fill-rule="nonzero" fill="rgb(34.901961%, 34.901961%, 34.901961%)" fill-opacity="1" d="M 52.171875 96.25 L 57.761719 96.25 L 57.761719 73.269531 L 52.171875 73.269531 Z M 52.171875 96.25 "/>
<path fill-rule="nonzero" fill="rgb(34.901961%, 34.901961%, 34.901961%)" fill-opacity="1" d="M 58.378906 97.074219 L 63.96875 97.074219 L 63.96875 96.25 L 58.378906 96.25 Z M 58.378906 97.074219 "/>
<path fill-rule="nonzero" fill="rgb(34.901961%, 34.901961%, 34.901961%)" fill-opacity="1" d="M 64.589844 96.25 L 70.179688 96.25 L 70.179688 76.300781 L 64.589844 76.300781 Z M 64.589844 96.25 "/>
<path fill-rule="nonzero" fill="rgb(34.901961%, 34.901961%, 34.901961%)" fill-opacity="1" d="M 70.796875 96.25 L 76.386719 96.25 L 76.386719 71.609375 L 70.796875 71.609375 Z M 70.796875 96.25 "/>
<path fill-rule="nonzero" fill="rgb(34.901961%, 34.901961%, 34.901961%)" fill-opacity="1" d="M 77.003906 96.25 L 82.59375 96.25 L 82.59375 81.902344 L 77.003906 81.902344 Z M 77.003906 96.25 "/>
<path fill-rule="nonzero" fill="rgb(34.901961%, 34.901961%, 34.901961%)" fill-opacity="1" d="M 83.214844 96.25 L 88.804688 96.25 L 88.804688 85.773438 L 83.214844 85.773438 Z M 83.214844 96.25 "/>
<path fill-rule="nonzero" fill="rgb(34.901961%, 34.901961%, 34.901961%)" fill-opacity="1" d="M 89.421875 96.25 L 95.011719 96.25 L 95.011719 91.125 L 89.421875 91.125 Z M 89.421875 96.25 "/>
<path fill-rule="nonzero" fill="rgb(34.901961%, 34.901961%, 34.901961%)" fill-opacity="1" d="M 95.632812 96.25 L 101.222656 96.25 L 101.222656 49.886719 L 95.632812 49.886719 Z M 95.632812 96.25 "/>
<path fill-rule="nonzero" fill="rgb(34.901961%, 34.901961%, 34.901961%)" fill-opacity="1" d="M 101.839844 96.25 L 107.429688 96.25 L 107.429688 43.570312 L 101.839844 43.570312 Z M 101.839844 96.25 "/>
<path fill-rule="nonzero" fill="rgb(34.901961%, 34.901961%, 34.901961%)" fill-opacity="1" d="M 108.050781 96.25 L 113.640625 96.25 L 113.640625 74.039062 L 108.050781 74.039062 Z M 108.050781 96.25 "/>
<path fill-rule="nonzero" fill="rgb(34.901961%, 34.901961%, 34.901961%)" fill-opacity="1" d="M 114.257812 96.25 L 119.847656 96.25 L 119.847656 83.445312 L 114.257812 83.445312 Z M 114.257812 96.25 "/>
<path fill-rule="nonzero" fill="rgb(34.901961%, 34.901961%, 34.901961%)" fill-opacity="1" d="M 120.46875 96.25 L 126.058594 96.25 L 126.058594 73.261719 L 120.46875 73.261719 Z M 120.46875 96.25 "/>
<path fill-rule="nonzero" fill="rgb(34.901961%, 34.901961%, 34.901961%)" fill-opacity="1" d="M 126.675781 96.25 L 132.265625 96.25 L 132.265625 46.625 L 126.675781 46.625 Z M 126.675781 96.25 "/>
<path fill-rule="nonzero" fill="rgb(34.901961%, 34.901961%, 34.901961%)" fill-opacity="1" d="M 132.886719 96.25 L 138.476562 96.25 L 138.476562 49.984375 L 132.886719 49.984375 Z M 132.886719 96.25 "/>
<path fill-rule="nonzero" fill="rgb(34.901961%, 34.901961%, 34.901961%)" fill-opacity="1" d="M 139.09375 96.25 L 144.683594 96.25 L 144.683594 60.332031 L 139.09375 60.332031 Z M 139.09375 96.25 "/>
<path fill-rule="nonzero" fill="rgb(34.901961%, 34.901961%, 34.901961%)" fill-opacity="1" d="M 145.304688 96.25 L 150.894531 96.25 L 150.894531 55.183594 L 145.304688 55.183594 Z M 145.304688 96.25 "/>
<path fill-rule="nonzero" fill="rgb(34.901961%, 34.901961%, 34.901961%)" fill-opacity="1" d="M 151.511719 96.25 L 157.101562 96.25 L 157.101562 67.308594 L 151.511719 67.308594 Z M 151.511719 96.25 "/>
<path fill-rule="nonzero" fill="rgb(34.901961%, 34.901961%, 34.901961%)" fill-opacity="1" d="M 157.71875 96.25 L 163.308594 96.25 L 163.308594 63.445312 L 157.71875 63.445312 Z M 157.71875 96.25 "/>
<path fill-rule="nonzero" fill="rgb(34.901961%, 34.901961%, 34.901961%)" fill-opacity="1" d="M 163.929688 96.25 L 169.519531 96.25 L 169.519531 54.5625 L 163.929688 54.5625 Z M 163.929688 96.25 "/>
<path fill-rule="nonzero" fill="rgb(34.901961%, 34.901961%, 34.901961%)" fill-opacity="1" d="M 170.136719 96.25 L 175.726562 96.25 L 175.726562 82.222656 L 170.136719 82.222656 Z M 170.136719 96.25 "/>
<path fill-rule="nonzero" fill="rgb(34.901961%, 34.901961%, 34.901961%)" fill-opacity="1" d="M 176.347656 126.152344 L 181.9375 126.152344 L 181.9375 96.25 L 176.347656 96.25 Z M 176.347656 126.152344 "/>
<path fill-rule="nonzero" fill="rgb(34.901961%, 34.901961%, 34.901961%)" fill-opacity="1" d="M 182.554688 133.769531 L 188.144531 133.769531 L 188.144531 96.25 L 182.554688 96.25 Z M 182.554688 133.769531 "/>
<path fill-rule="nonzero" fill="rgb(34.901961%, 34.901961%, 34.901961%)" fill-opacity="1" d="M 188.765625 161.722656 L 194.355469 161.722656 L 194.355469 96.246094 L 188.765625 96.246094 Z M 188.765625 161.722656 "/>
<path fill-rule="nonzero" fill="rgb(34.901961%, 34.901961%, 34.901961%)" fill-opacity="1" d="M 194.972656 144.433594 L 200.5625 144.433594 L 200.5625 96.246094 L 194.972656 96.246094 Z M 194.972656 144.433594 "/>
<path fill-rule="nonzero" fill="rgb(34.901961%, 34.901961%, 34.901961%)" fill-opacity="1" d="M 201.183594 210.734375 L 206.773438 210.734375 L 206.773438 96.246094 L 201.183594 96.246094 Z M 201.183594 210.734375 "/>
<path fill-rule="nonzero" fill="rgb(34.901961%, 34.901961%, 34.901961%)" fill-opacity="1" d="M 207.390625 194.324219 L 212.980469 194.324219 L 212.980469 96.25 L 207.390625 96.25 Z M 207.390625 194.324219 "/>
<path fill-rule="nonzero" fill="rgb(34.901961%, 34.901961%, 34.901961%)" fill-opacity="1" d="M 213.601562 166.566406 L 219.191406 166.566406 L 219.191406 96.25 L 213.601562 96.25 Z M 213.601562 166.566406 "/>
<path fill-rule="nonzero" fill="rgb(34.901961%, 34.901961%, 34.901961%)" fill-opacity="1" d="M 219.808594 180.929688 L 225.398438 180.929688 L 225.398438 96.246094 L 219.808594 96.246094 Z M 219.808594 180.929688 "/>
<path fill-rule="nonzero" fill="rgb(34.901961%, 34.901961%, 34.901961%)" fill-opacity="1" d="M 226.015625 166.246094 L 231.605469 166.246094 L 231.605469 96.25 L 226.015625 96.25 Z M 226.015625 166.246094 "/>
<path fill-rule="nonzero" fill="rgb(34.901961%, 34.901961%, 34.901961%)" fill-opacity="1" d="M 232.226562 161.824219 L 237.816406 161.824219 L 237.816406 96.25 L 232.226562 96.25 Z M 232.226562 161.824219 "/>
<path fill-rule="nonzero" fill="rgb(34.901961%, 34.901961%, 34.901961%)" fill-opacity="1" d="M 238.433594 135.359375 L 244.023438 135.359375 L 244.023438 96.246094 L 238.433594 96.246094 Z M 238.433594 135.359375 "/>
<path fill-rule="nonzero" fill="rgb(34.901961%, 34.901961%, 34.901961%)" fill-opacity="1" d="M 244.644531 170.394531 L 250.234375 170.394531 L 250.234375 96.246094 L 244.644531 96.246094 Z M 244.644531 170.394531 "/>
<path fill-rule="nonzero" fill="rgb(34.901961%, 34.901961%, 34.901961%)" fill-opacity="1" d="M 250.851562 125.363281 L 256.441406 125.363281 L 256.441406 96.246094 L 250.851562 96.246094 Z M 250.851562 125.363281 "/>
<path fill-rule="nonzero" fill="rgb(34.901961%, 34.901961%, 34.901961%)" fill-opacity="1" d="M 257.0625 129.890625 L 262.652344 129.890625 L 262.652344 96.246094 L 257.0625 96.246094 Z M 257.0625 129.890625 "/>
<path fill-rule="nonzero" fill="rgb(34.901961%, 34.901961%, 34.901961%)" fill-opacity="1" d="M 263.269531 118.636719 L 268.859375 118.636719 L 268.859375 96.25 L 263.269531 96.25 Z M 263.269531 118.636719 "/>
<path fill-rule="nonzero" fill="rgb(34.901961%, 34.901961%, 34.901961%)" fill-opacity="1" d="M 269.480469 138.082031 L 275.070312 138.082031 L 275.070312 96.246094 L 269.480469 96.246094 Z M 269.480469 138.082031 "/>
<path fill-rule="nonzero" fill="rgb(34.901961%, 34.901961%, 34.901961%)" fill-opacity="1" d="M 275.6875 152.019531 L 281.277344 152.019531 L 281.277344 96.25 L 275.6875 96.25 Z M 275.6875 152.019531 "/>
<path fill-rule="nonzero" fill="rgb(34.901961%, 34.901961%, 34.901961%)" fill-opacity="1" d="M 281.898438 150.570312 L 287.488281 150.570312 L 287.488281 96.246094 L 281.898438 96.246094 Z M 281.898438 150.570312 "/>
<path fill-rule="nonzero" fill="rgb(34.901961%, 34.901961%, 34.901961%)" fill-opacity="1" d="M 288.105469 112.667969 L 293.695312 112.667969 L 293.695312 96.25 L 288.105469 96.25 Z M 288.105469 112.667969 "/>
<path fill-rule="nonzero" fill="rgb(34.901961%, 34.901961%, 34.901961%)" fill-opacity="1" d="M 294.316406 102.875 L 299.90625 102.875 L 299.90625 96.25 L 294.316406 96.25 Z M 294.316406 102.875 "/>
<path fill-rule="nonzero" fill="rgb(34.901961%, 34.901961%, 34.901961%)" fill-opacity="1" d="M 300.523438 99.328125 L 306.113281 99.328125 L 306.113281 96.25 L 300.523438 96.25 Z M 300.523438 99.328125 "/>
<path fill-rule="nonzero" fill="rgb(34.901961%, 34.901961%, 34.901961%)" fill-opacity="1" d="M 306.730469 96.25 L 312.320312 96.25 L 312.320312 37.976562 L 306.730469 37.976562 Z M 306.730469 96.25 "/>
<path fill-rule="nonzero" fill="rgb(34.901961%, 34.901961%, 34.901961%)" fill-opacity="1" d="M 312.941406 96.25 L 318.53125 96.25 L 318.53125 78.988281 L 312.941406 78.988281 Z M 312.941406 96.25 "/>
<path fill-rule="nonzero" fill="rgb(34.901961%, 34.901961%, 34.901961%)" fill-opacity="1" d="M 319.148438 96.25 L 324.738281 96.25 L 324.738281 71.179688 L 319.148438 71.179688 Z M 319.148438 96.25 "/>
<path fill-rule="nonzero" fill="rgb(34.901961%, 34.901961%, 34.901961%)" fill-opacity="1" d="M 325.359375 96.25 L 330.949219 96.25 L 330.949219 48.886719 L 325.359375 48.886719 Z M 325.359375 96.25 "/>
<path fill-rule="nonzero" fill="rgb(34.901961%, 34.901961%, 34.901961%)" fill-opacity="1" d="M 331.566406 96.25 L 337.15625 96.25 L 337.15625 27.90625 L 331.566406 27.90625 Z M 331.566406 96.25 "/>
<path fill-rule="nonzero" fill="rgb(34.901961%, 34.901961%, 34.901961%)" fill-opacity="1" d="M 337.777344 96.25 L 343.367188 96.25 L 343.367188 52.742188 L 337.777344 52.742188 Z M 337.777344 96.25 "/>
<path fill-rule="nonzero" fill="rgb(34.901961%, 34.901961%, 34.901961%)" fill-opacity="1" d="M 343.984375 96.25 L 349.574219 96.25 L 349.574219 48.527344 L 343.984375 48.527344 Z M 343.984375 96.25 "/>
<path fill-rule="nonzero" fill="rgb(34.901961%, 34.901961%, 34.901961%)" fill-opacity="1" d="M 350.195312 96.25 L 355.785156 96.25 L 355.785156 68.605469 L 350.195312 68.605469 Z M 350.195312 96.25 "/>
<path fill-rule="nonzero" fill="rgb(34.901961%, 34.901961%, 34.901961%)" fill-opacity="1" d="M 356.402344 96.25 L 361.992188 96.25 L 361.992188 63.542969 L 356.402344 63.542969 Z M 356.402344 96.25 "/>
<path fill-rule="nonzero" fill="rgb(34.901961%, 34.901961%, 34.901961%)" fill-opacity="1" d="M 362.613281 96.25 L 368.203125 96.25 L 368.203125 28.539062 L 362.613281 28.539062 Z M 362.613281 96.25 "/>
<path fill-rule="nonzero" fill="rgb(34.901961%, 34.901961%, 34.901961%)" fill-opacity="1" d="M 368.820312 96.25 L 374.410156 96.25 L 374.410156 15.253906 L 368.820312 15.253906 Z M 368.820312 96.25 "/>
<g fill="rgb(30.196078%, 30.196078%, 30.196078%)" fill-opacity="1">
<use xlink:href="#glyph-0-0" x="18.40625" y="216.621094"/>
<use xlink:href="#glyph-0-1" x="21.336719" y="216.621094"/>
<use xlink:href="#glyph-0-2" x="26.230859" y="216.621094"/>
</g>
<g fill="rgb(30.196078%, 30.196078%, 30.196078%)" fill-opacity="1">
<use xlink:href="#glyph-0-0" x="18.40625" y="177.546875"/>
<use xlink:href="#glyph-0-2" x="21.336719" y="177.546875"/>
<use xlink:href="#glyph-0-3" x="26.230859" y="177.546875"/>
</g>
<g fill="rgb(30.196078%, 30.196078%, 30.196078%)" fill-opacity="1">
<use xlink:href="#glyph-0-0" x="18.40625" y="138.472656"/>
<use xlink:href="#glyph-0-4" x="21.336719" y="138.472656"/>
<use xlink:href="#glyph-0-2" x="26.230859" y="138.472656"/>
</g>
<g fill="rgb(30.196078%, 30.196078%, 30.196078%)" fill-opacity="1">
<use xlink:href="#glyph-0-3" x="26.230469" y="99.398438"/>
</g>
<g fill="rgb(30.196078%, 30.196078%, 30.196078%)" fill-opacity="1">
<use xlink:href="#glyph-0-4" x="21.335938" y="60.324219"/>
<use xlink:href="#glyph-0-2" x="26.230078" y="60.324219"/>
</g>
<g fill="rgb(30.196078%, 30.196078%, 30.196078%)" fill-opacity="1">
<use xlink:href="#glyph-0-2" x="21.335938" y="21.25"/>
<use xlink:href="#glyph-0-3" x="26.230078" y="21.25"/>
</g>
<path fill="none" stroke-width="1.066978" stroke-linecap="butt" stroke-linejoin="round" stroke="rgb(20%, 20%, 20%)" stroke-opacity="1" stroke-miterlimit="10" d="M 33.320312 213.472656 L 36.058594 213.472656 "/>
<path fill="none" stroke-width="1.066978" stroke-linecap="butt" stroke-linejoin="round" stroke="rgb(20%, 20%, 20%)" stroke-opacity="1" stroke-miterlimit="10" d="M 33.320312 174.398438 L 36.058594 174.398438 "/>
<path fill="none" stroke-width="1.066978" stroke-linecap="butt" stroke-linejoin="round" stroke="rgb(20%, 20%, 20%)" stroke-opacity="1" stroke-miterlimit="10" d="M 33.320312 135.324219 L 36.058594 135.324219 "/>
<path fill="none" stroke-width="1.066978" stroke-linecap="butt" stroke-linejoin="round" stroke="rgb(20%, 20%, 20%)" stroke-opacity="1" stroke-miterlimit="10" d="M 33.320312 96.25 L 36.058594 96.25 "/>
<path fill="none" stroke-width="1.066978" stroke-linecap="butt" stroke-linejoin="round" stroke="rgb(20%, 20%, 20%)" stroke-opacity="1" stroke-miterlimit="10" d="M 33.320312 57.175781 L 36.058594 57.175781 "/>
<path fill="none" stroke-width="1.066978" stroke-linecap="butt" stroke-linejoin="round" stroke="rgb(20%, 20%, 20%)" stroke-opacity="1" stroke-miterlimit="10" d="M 33.320312 18.101562 L 36.058594 18.101562 "/>
<path fill="none" stroke-width="1.066978" stroke-linecap="butt" stroke-linejoin="round" stroke="rgb(20%, 20%, 20%)" stroke-opacity="1" stroke-miterlimit="10" d="M 135.679688 223.25 L 135.679688 220.507812 "/>
<path fill="none" stroke-width="1.066978" stroke-linecap="butt" stroke-linejoin="round" stroke="rgb(20%, 20%, 20%)" stroke-opacity="1" stroke-miterlimit="10" d="M 259.855469 223.25 L 259.855469 220.507812 "/>
<path fill="none" stroke-width="1.066978" stroke-linecap="butt" stroke-linejoin="round" stroke="rgb(20%, 20%, 20%)" stroke-opacity="1" stroke-miterlimit="10" d="M 384.03125 223.25 L 384.03125 220.507812 "/>
<g fill="rgb(30.196078%, 30.196078%, 30.196078%)" fill-opacity="1">
<use xlink:href="#glyph-0-5" x="125.890625" y="231.738281"/>
<use xlink:href="#glyph-0-6" x="130.784766" y="231.738281"/>
<use xlink:href="#glyph-0-7" x="135.678906" y="231.738281"/>
<use xlink:href="#glyph-0-3" x="140.573047" y="231.738281"/>
</g>
<g fill="rgb(30.196078%, 30.196078%, 30.196078%)" fill-opacity="1">
<use xlink:href="#glyph-0-4" x="250.066406" y="231.738281"/>
<use xlink:href="#glyph-0-3" x="254.960547" y="231.738281"/>
<use xlink:href="#glyph-0-3" x="259.854688" y="231.738281"/>
<use xlink:href="#glyph-0-3" x="264.748828" y="231.738281"/>
</g>
<g fill="rgb(30.196078%, 30.196078%, 30.196078%)" fill-opacity="1">
<use xlink:href="#glyph-0-4" x="374.242188" y="231.738281"/>
<use xlink:href="#glyph-0-3" x="379.136328" y="231.738281"/>
<use xlink:href="#glyph-0-4" x="384.030469" y="231.738281"/>
<use xlink:href="#glyph-0-3" x="388.924609" y="231.738281"/>
</g>
<g fill="rgb(0%, 0%, 0%)" fill-opacity="1">
<use xlink:href="#glyph-1-0" x="201.671875" y="244.207031"/>
<use xlink:href="#glyph-1-1" x="209.008789" y="244.207031"/>
<use xlink:href="#glyph-1-2" x="215.126465" y="244.207031"/>
<use xlink:href="#glyph-1-3" x="221.244141" y="244.207031"/>
</g>
<g fill="rgb(0%, 0%, 0%)" fill-opacity="1">
<use xlink:href="#glyph-2-0" x="13.351562" y="124"/>
<use xlink:href="#glyph-2-1" x="13.351562" y="116.056152"/>
<use xlink:href="#glyph-2-2" x="13.351562" y="109.938477"/>
</g>
</svg>
